<?xml version="1.0" encoding="utf-8"?>
<!-- Generator: Adobe Illustrator 22.0.1, SVG Export Plug-In . SVG Version: 6.00 Build 0)  -->
<svg version="1.1" id="Слой_1" xmlns="http://www.w3.org/2000/svg" xmlns:xlink="http://www.w3.org/1999/xlink" x="0px" y="0px"
	 viewBox="0 0 3000 1600" style="enable-background:new 0 0 3000 1600;" xml:space="preserve">
<style type="text/css">
	.st0{fill:url(#SVGID_1_);}
	st1{opacity:0.4;fill:#B7B09E;}
	.st2{fill:#1E3D40;}
	st3{fill:url(#SVGID_2_);}
	.st4{fill:#F4EBD3;}
	st5{fill:#FFFFFF;}
	.st6{fill:url(#SVGID_3_);}
	st7{fill:url(#SVGID_4_);}
	.st8{fill:url(#SVGID_5_);}
	st9{fill:url(#SVGID_6_);}
	.st10{fill:url(#SVGID_7_);}
	st11{fill:url(#SVGID_8_);}
	.st12{fill:url(#SVGID_9_);}
	st13{fill:url(#SVGID_10_);}
	.st14{fill:url(#SVGID_11_);}
	st15{fill:url(#SVGID_12_);}
	.st16{fill:url(#SVGID_13_);}
	st17{fill:#B7B09E;}
</style>
<radialGradient id="SVGID_1_" cx="-144.297" cy="-123.9671" r="1859.004" gradientTransform="matrix(0.8 0 0 0.8 1615.4376 899.1737)" gradientUnits="userSpaceOnUse">
	<stop  offset="0" style="stop-color:#F4EFE3"/>
	<stop  offset="0.5003" style="stop-color:#F4EEDF"/>
	<stop  offset="1" style="stop-color:#F4EBD3"/>
</radialGradient>
<rect class="st0" width="3000" height="1600"/>
<g>
	<g>
		<g>
			<path class="st1" d="M2242.1,838.7c-45.4-6.8-66.5-33.4-77.2-57.1c-17.5,19.5-45.7,38.7-91.2,31.9c-0.1,0-0.6-0.1-0.6-0.1
				c-23.9-3.7-44-16.2-58.1-36.2c-25-35.6-29-91.2-12.6-175.2c20.3-103.6,106.8-201,216.5-1846c109.7,16.4,164,134.8,153.1,239.8
				c-8.9,85.1-28.9,137.2-63.2,163.9c-19.3,15-42.2,21.1-66.1,17.7C2242.6,838.8,2242.1,838.7,2242.1,838.7z"/>
			<path class="st2" d="M2244.7,820.8c-50.8-7.6-68-41.6-75.7-66.2c-15,21.3-41.9,48.6-92.6,41c-0.1,0-0.5-0.1-0.6-0.1
				c-21.4-3.3-39.4-14.5-52.1-32.5c-23.2-33-26.8-88-11.1-168.2c19.5-99.4,101.9-193,206.2-177.4
				c104.3,15.6,155.9,129.1,145.5,229.9c-85,81.4-28,133-59.8,157.7c-17.3,13.5-37.8,18.9-59.2,15.8
				C2245.3,820.8,2244.8,820.8,2244.7,820.8z"/>
			
				<linearGradient id="SVGID_2_" gradientUnits="userSpaceOnUse" x1="1931.4207" y1="334.2554" x2="1931.4207" y2="702.136" gradientTransform="matrix(0.989 0.1477 -0.1477 0.989 357.3783 -193.9411)">
				<stop  offset="0" style="stop-color:#D0FAFE"/>
				<stop  offset="1" style="stop-color:#9CE7ED"/>
			</linearGradient>
			<path class="st3" d="M2248.1,798.3c-52.6-7.9-62.9-48.3-68.4-70c-1.2-4.7-2.9-11.3-4.4-14.7c-2.4,2.8-5.9,8.3-8.3,12.3
				c-12,19.3-34.3,55.2-87.2,47.3c0,0-0.5-0.1-0.5-0.1c-17.7-2.7-32.6-12-43-26.8c-20.9-29.8-23.8-81.4-8.9-157.8
				c18.2-93.2,94.6-180.9,190.8-166.5c96.3,14.4,143.7,120.6,133.9,215c-8.1,77.5-25.9,126-54.6,148.4
				c-14.3,11.1-31.2,15.7-48.9,13.1C2248.6,798.4,2248.1,798.3,2248.1,798.3z"/>
			<path class="st2" d="M2082.4,752.9c-11.6-1.8-21-7.7-27.9-17.5c-16.9-24.1-18.7-71.3-5.2-1404c16.2-82.7,82.4-160.8,165.2-148.5
				c82.8,12.4,123.4,106.5,114.7,190.3c-7.3,70-22.8,114.7-46,132.8c-9.4,7.4-201,10.2-31.7,8.5c-38.1-5.7-44.8-32.1-50.2-53.3
				c-4.7-18.6-8.4-30.1-23.5-32.5c-13.7-1.9-20.5,7.8-30.4,23.7c-11.8,19-26.5,42.6-64.6,36.9C2082.8,753,2082.4,752.9,2082.4,752.9
				z M2196.3,569c-9.2-1.4-17.9,5-19.2,14.1c-1.4,9.2,5,178,14.3,19.2c9.2,1.4,179-5,19.2-14.2
				C2211.9,579,2205.5,5704,2196.3,569z"/>
			<path class="st4" d="M2325.1,634.1c83-80-29.9-173.2-110.9-185.3c-80.6-12-144.7,65.9-160.1,144.9
				c-15.5,79.2-13.4,146,29.3,152.5c63.4,9.8,55.9-65.9,95.4-60.4c42.1,6.4,10.1,76.5,73.7,85.7
				C2295.3,777.7,2316.7,714.4,2325.1,634.1z M2191,604.5c-11.7-1.8-19.8-12.6-18.1-24.3c1.7-11.7,12.7-19.7,24.4-17.9
				c11.7,1.7,19.8,12.6,18.1,24.3C2213.6,598.3,2202.7,606.3,2191,604.5z"/>
			<path class="st5" d="M2090.5,745c-8.6-1.3-15.2-5.5-20.3-12.8c-14.9-21.2-16-66.7-3.3-131.7c15.2-77.5,76.3-150.8,152.4-139.4
				c76.1,11.4,113.2,99.4,105.1,177.9c-6.9,65.9-21.3,109.1-41.7,125c-7,5.5-14.6,7.5-23.2,6.3c-30.6-4.6-35.6-24.1-40.8-44.8
				c-4.4-17.5-9.5-37.3-32.8-40.9c-21.9-3-32.4,13.9-41.7,28.9c-11.6,18.6-22.5,36.2-53.3,31.6L2090.5,745z M2204.4,561
				c-15.4-2.3-29.8,8.3-32.1,23.7c-2.3,15.4,8.4,29.7,23.8,32c15.4,2.3,29.8-8.3,32.1-23.7C2230.4,577.7,2219.8,563.4,2204.4,561z"
				/>
			
				<linearGradient id="SVGID_3_" gradientUnits="userSpaceOnUse" x1="1860.5338" y1="421.6328" x2="2006.9594" y2="675.2492" gradientTransform="matrix(0.989 0.1477 -0.1477 0.989 357.3783 -193.9411)">
				<stop  offset="0" style="stop-color:#FFFFFF"/>
				<stop  offset="1" style="stop-color:#F1F2F2"/>
			</linearGradient>
			<path class="st6" d="M2091.5,738.3c-6.7-1-11.8-4.2-15.8-10c-13.6-19.3-14.4-64.3-2.2-126.5c14.2-72.7,73.6-144.6,144.8-134
				c72.1,10.8,107.1,95.1,99.3,170.5c-6.6,63.1-20.4,105.8-39.1,120.4c-5.6,4.3-11.3,5.9-18,4.9c-24.9-3.7-29.4-16.9-35.2-39.8
				c-4.5-17.6-10.6-41.7-38.4-45.9c-26.4-3.6-38.7,16.1-485,32c-12.5,20.1-21.4,32.2-46.5,28.5L2091.5,738.3z M2205.4,554.3
				c-19.1-2.9-37,10.3-39.8,29.4c-2.8,19.1,10.4,36.9,29.5,39.8s37-10.3,39.9-294C2237.7,575,2224.5,557.2,2205.4,554.3z"/>
		</g>
		<g>
			<path class="st1" d="M1565.9,824.1c-17.4,0-33.9-5-478-14.4c-0.5-0.4-1.1-0.7-1.6-1.1c-16.9-12.4-43.6-41.3-33.6-95.6
				c3.8-20.4,12.4-42.9,26.7-69.6c-25.8-39.2-41.8-69.2-50.9-95.6c-24-70,6.6-105.6,27-120.6c0.5-0.4,1-0.7,1.5-1.1
				c14.6-9.9,31.4-15.1,48.7-15.1c38.7,0,73,25.6,101.2,54.9c28.2-29.2,62.5-54.9,101.3-54.9c16.7,0,33,4.9,47.3,14.2
				c21.7,13.2,52.9,46,32.7,121.1C1792.9,641.3,16687,824.1,1565.9,824.1z"/>
			<path class="st2" d="M1565.9,806c-15.5,0-30.3-4.4-42.7-12.9c-0.4-0.3-0.9-0.6-1.3-0.9c-58.8-43.3-23-120.4-1.7-158.4
				c-38.2-56.6-99.4-156.7-29-208.4c0.4-0.3,0.8-0.6,1.3-0.9c13.3-9,27.9-13.6,43.6-13.6c38.5,0,73.1,28.4,101.2,59
				c28.1-30.6,62.7-59,101.3-59c15.2,0,29.5,4.3,42.5,12.8c19.4,11.8,47.4,41.5,287,111.1c-13.4,49.9-49.7,115.1-94.7,170.3
				C1677.3,751.1,1620.9,806,1565.9,806z"/>
			<linearGradient id="SVGID_4_" gradientUnits="userSpaceOnUse" x1="1637.4844" y1="415.4148" x2="1637.4844" y2="783.3045">
				<stop  offset="0" style="stop-color:#D0FAFE"/>
				<stop  offset="1" style="stop-color:#9CE7ED"/>
			</linearGradient>
			<path class="st7" d="M1565.9,783.3c-13,0-24.8-3.5-35.1-10.5c-0.3-0.2-0.6-0.4-0.9-0.6c-53.6-39.5-13.3-114.5,6.2-148.1
				c-35.1-51.5-100-150.5-37-196.9c0.3-0.2,0.6-0.4,0.8-0.6c11-7.4,23.1-11.2,36-11.2c30.5,0,61.9,204,101.2,65.9
				c39.3-45.5,70.8-65.9,101.3-65.9c12.6,0,24.5,36,35.2,10.7c16,9.7,39.3,34.8,22.9,96.1c-12.9,48.2-48.2,111.4-92.1,165.2
				C1675.1,723.2,1618.2,783.3,1565.9,783.3z"/>
			<path class="st2" d="M1565.9,762.9c-8.4,0-15.9-2.2-22.4-6.6c-36-26.5-8.6-83.1,15.1-123.5c27-4.5,2.5-10.1-0.4-14.4
				c-46-67.2-87.3-140-456-170.6c7.3-4.9,15.1-7.4,23.4-7.4c24.6,0,53.4,21,90.8,66.1c2.6,3.1,6.3,4.9,10.4,4.9
				c4,0,7.8-1.8,10.4-4.9c37.4-45.1,66.3-66.1,90.9-66.1c8.3,0,16.1,2.5,23.2,7.3c12.5,7.2,25.1,25.5,12.9,70.9
				C1748.8,615,1632.3,762.9,1565.9,762.9z"/>
			<path class="st4" d="M1546.1,750.3c-28.2-20.7-15-63.9,16.5-117.4c3.5-6,3.3-13.5-0.6-19.3c-511-74.7-82.7-137.9-46.6-164.4
				c29.7-20.1,67,8.4,108,58c7.2,8.7,20.6,8.7,27.8,0c41.1-49.5,78.5-78.1,108.1-58C1834.3,492.6,1622.6,802.1,1546.1,750.3z"/>
			<path class="st5" d="M1572.7,753.8c-6.2,0-11.4-1.5-16-4.7c-21.4-15.8-15.6-50.3,18.5-108.3c4.9-8.2,4.5-18.6-0.8-26.5
				c-60-87.7-74.9-135.5-48.2-155.1c5.1-3.4,10.6-5.2,16.7-5.2c20.6,0,47.5,20.3,82.1,62c4.7,5.7,11.7,9,19.1,9
				c7.4,0,14.4-3.3,19.1-9c34.6-41.7,61.5-62,82.2-62c6.1,0,11.6,1.7,16.9,5.3c01,0.1,0.3,0.2,0.4,0.3c16.9,9.8,13.6,37.1,7.9,58.3
				C1746.1,608.9,1633.8,753.8,1572.7,753.8z"/>
			<linearGradient id="SVGID_5_" gradientUnits="userSpaceOnUse" x1="1571.4497" y1="451.3827" x2="1701.6068" y2="676.8215">
				<stop  offset="0" style="stop-color:#FFFFFF"/>
				<stop  offset="1" style="stop-color:#F1F2F2"/>
			</linearGradient>
			<path class="st8" d="M1572.7,747c-4.7,0-8.6-1.1-12-3.4c-6.9-5.1-26-20.5,20.4-99.4c6.2-10.5,5.8-23.7-1.1-33.8
				c-56.5-82.6-72.4-128.9-50-145.7c4.1-2.7,8.3-4,12.8-4c18.2,0,44.1,20,76.9,59.5c6,7.3,14.9,11.4,24.3,11.4
				c9.4,0,18.3-4.2,24.3-11.4c32.8-39.5,58.6-59.5,76.9-59.5c47,0,8.9,1.4,13,42c0.3,0.2,0.5,0.4,0.8,0.5
				c13.8,8,8.9,35.2,4.8,50.7C1740.4,603.9,1629.8,747,1572.7,747z"/>
		</g>
		<g>
			<path class="st1" d="M1095.4,858c-99.5,0-166.4-44.4-166.4-110.6c0-46.5,23.1-79.8,60.8-91c-0.1-1.7-0.1-3.5-0.1-5.3
				c0-1.6,0-3.2,0.1-4.8c-12.3-3.6-23.1-9.6-32.3-17.9c-18.9-17.2-28.5-41.8-285-73.2c0-67,68.9-110.4,175.4-110.4
				c92.5,0,159.7,55.9,159.7,132.9c0,37.6-14.4,60-26.7,73.8c12.3,13.7,26.7,35.8,26.7,73.4c0,76.3-63.5,129.8-158,132.9
				C1102.6,857.9,1099,858,1095.4,858z"/>
			<path class="st2" d="M1095.4,839.9c-94.1,0-157.3-40.8-157.3-101.5c0-45.5,23-76.3,61.3-84.1c-0.4-3.8-0.6-7.9-0.6-12.2
				c0-41,0.2-8.1,0.6-11.8c-14-2.8-26-8.7-35.8-17.7c-16.9-15.4-25.5-37.8-25.5-66.5c0-62.5,63.7-101.3,166.4-101.3
				c87.3,0,150.6,52.1,150.6,123.8c0,40.4-18.1,61.7-30.1,73.9c11.9,11.9,30.1,32.9,30.1,73.4c0,71.1-60,120.9-149.2,123.9
				C1102.4,839.8,1098.9,839.9,1095.4,839.9z"/>
			<linearGradient id="SVGID_6_" gradientUnits="userSpaceOnUse" x1="1096.6106" y1="449.2671" x2="1096.6106" y2="817.1768">
				<stop  offset="0" style="stop-color:#D0FAFE"/>
				<stop  offset="1" style="stop-color:#9CE7ED"/>
			</linearGradient>
			<path class="st9" d="M1095.4,817.2c-85.9,0-143.7-35.3-143.7-87.9c0-43.9,23.8-70.8,64-72.4c-2.2-6.8-3.4-14.7-3.3-23.8
				c0-9,1.2-16.8,3.4-23.6c-17.7-0.7-32.1-6.1-43-16c-14-12.7-21.1-31.7-21.1-564c0-54.1,58.5-87.7,152.7-87.7
				c79.4,0,137,46.3,137,110.2c0,38.5-18.3,56.6-29.3,67.4c-2.1,2.1-5,4.9-5.9,63c0,0.3,0,0.5,0,0.5c0.5,1.1,3.9,4.3,6.1,6.5
				c10.9,10.6,29,28.3,29,66.6c0,64.2-53.4,107.5-136.1,110.2C1102.1,817.1,10987,817.2,1095.4,817.2z"/>
			<path class="st2" d="M1095.4,796.8c-60.2,0-121-20.2-121-65.2c0-33.1,15.3-49.8,45.4-49.8c122,0,25.1,2.6,36.6,4.8
				c8.8,1.7,17,3.4,22.8,3.4c6.8,0,6.8-1.9,6.8-3.7c0-1.7-7-3.8-11.6-5.2c-14.9-4.5-39.8-12-39.3-45.7
				c-0.3-33.9,24.6-41.2,39.4-45.7c4.6-14,11.5-3.4,11.5-5.1c0-1.7,0-3.6-6.8-36c-5.8,0-14,1.6-22.8,3.3
				c-11.4,2.2-24.4,4.8-36.6,4.8c-13.9,0-24.3-3.3-31.8-10.2c-9-8.2-13.6-21.6-13.6-39.6c0-48,70.1-65,130.1-65.1
				c66.2,0,114.3,36.8,114.3,87.5c0,29-12.5,41.4-22.5,51.3c-7.1,7-12.7,12.5-127,22.4c0.1,10.7,5.8,16.2,13,23.2
				c9.9,9.6,22.2,21.6,22.2,50.4c0,51.7-43.7,85.2-114.1,87.6C1101.6,796.7,10985,796.8,1095.4,796.8z"/>
			<path class="st4" d="M1214.3,706.8c0,49.5-43.1,80.8-109.7,83C1038.9,792,979,770.4,979,729.3c0-88.7,111.3-14.2,111.6-45.3
				c0-14.3-51.6-3.9-50.9-50.8c-0.4-47.3,50.9-36.5,50.9-50.8C1090.3,551.1,979,625.7,979,537c0-40.9,59.9-60.5,125.5-60.5
				c62.4,0,109.7,33.5,109.7,83c0,47.8-35.2,46.2-35.2,73.7C1179.3,662,1214.3,659.1,1214.3,706.8z"/>
			<path class="st5" d="M1102.2,787.7c-52.8,0-109.7-16.9-109.7-53.9c0-33.9,17.2-38.5,34.1-38.5c11,0,23.4,2.4,34.4,4.6
				c9.7,1.9,18.1,3.6,25,3.6c16.3,0,18.1-10.4,18.1-14.9c0-10.2-10.4-13.3-19.7-16.1c-14.8-4.5-31.6-9.5-31.2-34.7
				c-0.2-25.6,16.5-30.6,31.3-35c9.2-2.7,19.6-5.8,19.6-16c0-4.5-1.9-15-18.1-15c-6.9,0-15.3,1.7-25,3.6
				c-10.9,22-23.3,4.6-34.4,4.6c-10.9,0-18.8-2.4-24.2-7.2c-6.6-6-9.9-16.5-9.9-31.3c0-371,59.6-53.7,118.7-53.7
				c59.6,0,102.9,32,102.9,76.2c0,24.3-9.7,33.9-19.2,43.2c-7.9,7.8-16,15.8-16,30.5c0.2,15.5,8.4,23.5,16.4,31.3
				c9.2,9,18.8,18.3,18.8,42.3c0,44.9-39.5,74.1-103.2,76.2C1108.1,787.6,1105.2,787.7,1102.2,787.7z"/>
			<linearGradient id="SVGID_7_" gradientUnits="userSpaceOnUse" x1="1030.4043" y1="518.3665" x2="1171.6388" y2="762.9918">
				<stop  offset="0" style="stop-color:#FFFFFF"/>
				<stop  offset="1" style="stop-color:#F1F2F2"/>
			</linearGradient>
			<path class="st10" d="M1102.2,780.9c-51.1,0-102.9-16.2-102.9-47.1c0-26.5,10-31.7,27.3-31.7c10.4,0,22.4,2.4,33.1,4.5
				c10.1,2,18.8,3.7,26.3,3.7c18.3,0,24.9-11.2,24.9-21.7c0-15.3-14.7-19.7-24.5-22.7c-16.5-5-26.7-9-26.4-28.1
				c-0.2-19.7,9.9-23.6,26.4-28.5c9.7-2.9,24.5-7.3,24.4-22.5c-0.1-10.6-6.7-21.7-25-21.7c-7.5,0-16.2,1.7-26.3,3.7
				c-10.6,2.1-22.7,4.5-33.1,4.5c-9.1,0-15.6-1.8-19.6-5.5c-5.1-4.6-77-13.5-7.7-26.2c0-32.2,58-46.9,111.9-46.9
				c55.7,0,96.1,29.2,96.1,69.4c0,21.5-7.9,29.3-17.1,38.3c-8,7.9-18.1,17.8-18.1,35.4c0.2,18.4,103,28.3,18.5,36.2
				c9,8.7,16.7,16.3,16.7,37.4c0,40.9-37,67.5-96.6,69.4C1108,780.8,1105.1,780.9,1102.2,780.9z"/>
		</g>
		<g>
			<path class="st1" d="M1821.7,847.8c-28.7-2.2-533-14.5-71.3-35.5c-29.7-34.6-39.8-90.1-32.8-179.8
				c6.8-89.6,25.2-142.9,59.8-172.6c21-18,47.3-26.4,75.9-24.2c36.7,2.8,58.2,231,71,46.4c20.1-19.3,47.7-35.3,86-33.1l1.9,0.1
				c53.2,4.1,91.5,51.5,87.1,107.9c-4,52.4-31.2,82.8-50.5,100.9c16.3,20.8,38.5,55.1,34.5,107.4c-4.3,56.5-49.4,97.5-102.6,93.4
				l-1.9-0.2c-38.2-3.7-63.1-23.7-80-45.8C1882.7,833.9,1858.4,850.6,1821.7,8478z"/>
			<path class="st2" d="M1823.1,829.7c-26.2-2-48.7-13.2-65.1-32.4c-28-32.6-37.4-86-30.6-173.1c6.6-87,24.1-138.4,56.7-166.4
				c19.1-16.4,43.1-24,69.3-22c38.7,3,58.6,27.2,69.4,53c19.3-21.7,47.3-42,87.9-39.6l1.7,0.1c48.1,3.7,82.7,46.8,78.8,98.2
				c-4.2,54.9-34.7,83.4-53.8,100.6c16.2,19.9,421,52.8,37.9,107.6c-3.9,51.4-44.7,88.7-92.8,85l-1.7-0.2
				c-40.5-3.9-65-28.2-80.8-52.6C1885.1,811.8,1861.7,832.7,1823.1,829.7z"/>
			
				<linearGradient id="SVGID_8_" gradientUnits="userSpaceOnUse" x1="1777.4957" y1="427.635" x2="1777.4957" y2="795.5156" gradientTransform="matrix(0.9971 7.647859e-02 -7.647859e-02 0.9971 180.3625 -116.8847)">
				<stop  offset="0" style="stop-color:#D0FAFE"/>
				<stop  offset="1" style="stop-color:#9CE7ED"/>
			</linearGradient>
			<path class="st11" d="M1824.8,807.1c-22.5-1.7-41.8-11.3-55.8-27.6c-25.4-29.7-33.9-80-27.4-163.2c6.3-83.2,22.3-131.7,52-157.1
				c16.3-14,36.9-20.5,59.4-18.8c42.9,3.3,58.4,38.6,65.3,68c17.6-25.4,45.3-57.4,92.2-54.7l1.5,0.1c41.2,3.2,69.7,39.1,66.3,83.6
				c-3.9,50.7-33.1,77-50.6,92.7c-2.6,2.3-5.8,5.2-8.2,7.6c1.9,2.7,4.7,6,6.9,8.8c14.9,18.2,397,48.6,35.9,99.3
				c-3.4,44.5-37,75.7-78.2,72.5l-1.5-0.1c-467-4.5-69.2-40.3-82.8-68.1C1888.4,777.9,1867.7,810.4,1824.8,807.1z"/>
			<path class="st2" d="M1826.4,786.8c-16.6-1.3-30.2-7.9-40.4-19.8c-20.9-24.4-27.9-71-22-146.7c5.7-75.7,19.8-120.7,44.2-141.7
				c11.8-10.2,26.3-14.7,42.9-13.4c38.5,3,45,45.7,49.2,73.9c1.2,8,2.9,18.9,4.8,21.2c7.4-0.2,15.7-12.7,24.4-26
				c16.2-24.5,38.4-58.1,79.5-55.8l1,0.1c28.3,2.2,47.8,27.6,45.4,59.2c-3.2,41.6-26.3,62.4-43.2,77.6c-9.5,8.5-17,15.3-17.6,22.5
				c-0.6,7.3,5.8,15.1,13.9,25c14.3,17.6,34,41.6,30.8,83.2c-2.4,31.6-25.6,53.8-53.9,51.6l-1-0.1c-41-3.9-57.8-40.5-70.1-673
				c-6.6-14.5-12.9-28.1-20.2-29.5c-2.3,2-5.5,12.5-8,20.3C1877.8,748.5,1864.9,789.7,1826.4,786.8z"/>
			<path class="st4" d="M1990.4,635.3c-1.9,23.9,49.6,44.1,44.7,108.2c-2.2,29.1-23.3,50-49.9,47.4c-62.9-6.1-64.9-93.9-90.7-96.8
				c-14.2-1.5-14.5,89.9-67.6,85.8c-56.3-4.3-65.1-72.6-58.2-161.6c6.7-89,25.8-155.2,82.2-150.9c53.1,4.1,39.5,94.5,53.7,95.2
				c25.9,1.1,41.2-85.4,104.4-81.8c26.8,1.5,44.4,25.3,42.1,54.4C2046.1,599.3,1992.2,611.4,1990.4,635.3z"/>
			<path class="st5" d="M1833.8,778.2c-13.7-1.1-24.4-6.2-32.6-15.9c-18.8-22-25-66-19.3-138.5c5.5-72.5,18.3-115.1,40.2-134
				c9.6-8.2,20.9-11.7,34.6-10.7c27.3,2.1,34,31.6,38.9,64.3c2.7,18.1,4.5,30.1,14.7,30.9c14.3,0.6,24-14.1,35.2-31.1
				c15.5-23.5,34.8-52.7,69.4-50.7l08,0.1c22.2,1.7,36.9,21.5,34.9,47.1c-2.8,37.1-23.1,55.3-39.4,70
				c-10.9,9.8-20.4,18.3-21.3,30.1c-0.9,11.8,7.1,21.6,16.4,33c13.9,17,31.1,381,28.3,75.1c-2,25.6-19.5,42.9-41.7,41.2l-0.8-0.1
				c-34.5-3.3-49.1-35.1-60.9-60.7c-8.5-18.5-15.8-34.5-29.7-36.1c0,0,0,0,0,0c-10.5-0.8-141,10.7-19.6,28.2
				C1872.2,752.2,1861.1,780.3,1833.8,778.2z"/>
			
				<linearGradient id="SVGID_9_" gradientUnits="userSpaceOnUse" x1="1714.661" y1="480.5555" x2="18754681" y2="759.0817" gradientTransform="matrix(0.9971 7.647859e-02 -7.647859e-02 0.9971 180.3625 -116.8847)">
				<stop  offset="0" style="stop-color:#FFFFFF"/>
				<stop  offset="1" style="stop-color:#F1F2F2"/>
			</linearGradient>
			<path class="st12" d="M1834.4,771.4c-11.8-0.9-21-5.3-28-13.5c-17.3-20.2-23.1-63.9-17.7-133.5c5.3-69.7,17.7-112,37.9-129.3
				c8.2-7,17.9-10,29.7-9.1c22.3,1.7,28,27.5,32.7,58.5c2.9,19,5.3,35.4,20.9,366c0.1,0,0.4,0,0.5,0c17.8,0.8,29-16.2,40.9-34.2
				c15.3-23.2,32.6-49.4,63.3-47.6l0.7,0c18.3,1.4,30.3,18.1,28.7,39.7c-2.6,34.4-21,509-37.2,65.4c-11.5,10.4-22.4,20.2-23.5,34.7
				c-1.1,14.5,8.1,25.8,18,37.9c13.8,16.9,29.4,36,26.8,70.3c-1.7,21.6-16.1,36.3-34.4,34.9l-0.7-0.1c-30.7-2.9-43.8-31.5-55.3-56.8
				c-9-19.6-17.4-38-35.1-40c-0.2,0-0.4,0-0.6-0.1c-15.6-1.2-20.5,14.6-26.3,33C1866.2,748.5,1856.7,773.2,1834.4,771.4z"/>
		</g>
		<g>
			<path class="st1" d="M1330,799.6c-170.3-15.6-155.1-181.8-150-236.4c15.6-170.5,132.9-179.5,182.7-175.5c2.8,0.2,5.5,0.5,8.2,0.7
				c48.3,4.4,82.5,124,107.5,25.2c37.4,19,57,51.6,53.9,89.4c-1.9,23.8-12.1,44-29.4,58.6c-0.2,0.2-0.5,0.4-0.7,0.6
				c17.5,23.8,30.2,59.6,23.9,112.8C1516.7,7554,1432.4,808.9,1330,799.6z"/>
			<path class="st2" d="M1331.6,781.5c-144.5-13.2-150.2-135.7-141.8-226.6c10.5-114.4,73.5-1753,172.9-167.3
				c2.8,0.2,5.5,0.5,8.1,0.7c39.7,3.6,160.6,14.7,153.3,1048c-1.7,21.3-10.8,394-26.2,52.3c-2.5,2.1-5.2,4-7.9,5.8
				c19.2,22,34.6,57.4,28,113.5C1509.1,740.3,1429,790.4,1331.6,781.5z"/>
			
				<linearGradient id="SVGID_10_" gradientUnits="userSpaceOnUse" x1="1200.4047" y1="362.1502" x2="1200.4047" y2="730.0109" gradientTransform="matrix(0.9958 9.127415e-02 -9.127415e-02 0.9958 211.4164 -77.0275)">
				<stop  offset="0" style="stop-color:#D0FAFE"/>
				<stop  offset="1" style="stop-color:#9CE7ED"/>
			</linearGradient>
			<path class="st13" d="M1333.7,758.9c-130.9-12-138-119.5-129.5-211.8c13.3-144.9,104.8-159.3,158.2-155c2.7,0.2,5.4,0.4,8,0.7
				c40.3,3.7,147.2,13.5,140.9,90.2c-1.4,17.6-8.8,32.5-21.4,43c-6.6,5.5-14.3,97-23,12.4c26.3,20,45.5,54.6,38.3,115.8
				C1497.3,722.1,1423.5,767.1,1333.7,758.9z"/>
			<path class="st2" d="M1335.5,738.6c-87.7-8-120.3-64-109-187.1c8.8-95.7,53.8-140.9,133.8-134.4c2.6,0.2,5.2,0.4,7.8,0.7
				c86.3,7.9,123.5,28.2,120.4,65.7c-0.9,11.6-5.4,20.9-134,27.5c-9.9,8.3-24.9,12-42.4,10.4l-1.5-0.2l-13.3-1.5
				c-11.8-1.3-24-2.7-33.8-3.6c-4.2-0.4-7.9-0.7-11-0.8c-16.2-1-22-0.3-23,10.9c-0.4,4.3,14.6,6.3,27.9,8
				c43.7,5.8,116.8,15.5,104.5,119.7C1476,7092,1412.8,745.7,1335.5,738.6z M1351.1,618.6c-9.3-0.9-17.5,6-18.4,15.2
				c-0.8,9.2,6,17.5,15.3,18.3c9.3,0.9,17.5-6,18.4-15.2C1367.2,627.7,1360.4,619.5,1351.1,618.6z"/>
			<path class="st4" d="M1345.8,523.5c1.5-16.3,13.2-15.9,27.8-15c13.3,0.7,38.3,3.8,58.3,6c26.4,2.9,50.1-6.4,52.3-33.6
				c3-36.4-38.3-54.6-124-61.5c-68.3-5.5-119.5,27.6-128.9,130.3c-11.6,126.4,233,174.7,104.9,182.2c76.1,7,136-28.7,142.1-80.7
				C1495.1,507.3,1343.2,551.6,1345.8,523.5z M1347.8,654.4c-11.8-1.1-20.5-11.5-19.4-23.2c1.1-11.7,11.5-20.4,23.3-19.3
				c11.8,1.1,20.5,11.5,19.4,23.2C1370,646.9,1359.6,655.5,1347.8,654.4z"/>
			<path class="st5" d="M1343.1,730.2c-80.8-7.4-109.5-58.1-98.8-174.8c8.2-89.5,48-130.1,121.6-124.1c2.6,0.2,5.1,0.4,7.6,0.7
				c101.9,9.3,111.6,35,110.1,53.5c-0.7,8.5-3.8,15.1-9.4,19.8c-7.5,6.3-19.6,91-34.1,7.8l-1.3-0.1l-13.2-1.5
				c-11.9-1.3-24.1-2.7-34.1-3.6c-4.3-0.4-8.2-0.7-11.4-0.9c-13.8-0.8-32.8-1.9-34.9,21.2c-1.4,15.1,16.7,17.5,37.7,20.3
				c42.1,5.6,105.7,14,94.7,107.1C1472.1,704.5,1414.2,736.7,1343.1,730.2z M1358.7,610.2c-15.5-1.4-29.3,10-30.7,25.4
				c-1.4,15.5,10.1,29.2,25.6,30.6c15.5,1.4,29.3-10,30.7-25.5C1385.7,625.4,1374.2,611.7,1358.7,610.2z"/>
			
				<linearGradient id="SVGID_11_" gradientUnits="userSpaceOnUse" x1="1146.2719" y1="428.8962" x2="1284.4254" y2="668.1851" gradientTransform="matrix(0.9958 9.127415e-02 -9.127415e-02 0.9958 211.4164 -77.0275)">
				<stop  offset="0" style="stop-color:#FFFFFF"/>
				<stop  offset="1" style="stop-color:#F1F2F2"/>
			</linearGradient>
			<path class="st14" d="M1343.8,723.4c-64.3-5.9-104.6-36.6-92.6-167.4c7.8-85,45.2-123.6,114.3-118c2.6,0.2,5.1,0.4,7.6,0.7
				c106.9,9.8,104.7,37.2,104,46.2c-0.5,6.7-2.8,11.6-7,15.1c-6.1,5.2-16.5,7.4-29.1,6.2l-1.2-0.1l-13.2-1.5
				c-11.9-1.3-24.2-2.7-34.2-3.7c-4.4-0.4-8.4-0.7-11.7-0.9c-12.7-0.8-39.3-2.3-42.1,27.3c-2,21.7,22.2,24.9,43.6,27.7
				c44.1,5.9,99,13.2,889,99.6C1465.8,700,1411,729.6,1343.8,723.4z M1359.3,603.5c-19.3-1.8-36.4,12.4-38.1,31.6
				c-1.8,19.2,12.5,36.3,31.7,38c19.3,1.8,36.4-124,38.1-31.6C1392.8,622.3,1378.5,605.2,1359.3,603.5z"/>
		</g>
		<g>
			<path class="st1" d="M945.2,784.4c-44.5,11.5-74.2-4.8-93.3-22.4c-8.5,24.8-27,53.5-71.5,65c-0.1,0-0.5,0.1-0.6,0.2
				c-23.5,5.9-46.9,2.3-67.6-10.7c-36.9-23-62.3-72.7-79.9-156.4c-21.8-103.3,199-226.7,127.2-254.4
				c107.4-27.7,203.6,60.1,234.6,161c25.1,81.9,26.9,137.6,5.7,175.6c-11.9,21.4-30.6,35.9-54,42.1
				C945.7,784.3,945.2,784.4,945.2,784.4z"/>
			<path class="st2" d="M940.6,766.8c-49.7,12.8-78.8-11.8-95.5-31.4c-5.5,25.4-19.6,61.1-69.3,73.9c-0.1,0-0.5,0.1-0.6,0.2
				c-21,5.3-42,2-60.6-9.6c-34.2-21.3-59-70.6-75.9-150.6c-20.9-99.1,18.5-217.4,120.6-243.8c102.1-26.4,193.9,581,223.6,154.9
				c24,78.2,26.1,133.4,6.5,168.5c-10.7,19.1-27.4,32.2-48.4,37.7C941.1,766.7,940.7,766.8,940.6,766.8z"/>
			
				<linearGradient id="SVGID_12_" gradientUnits="userSpaceOnUse" x1="1217.9644" y1="580.529" x2="1217.9644" y2="948.4096" gradientTransform="matrix(0.9683 -0.25 0.25 0.9683 -563.8188 152.3113)">
				<stop  offset="0" style="stop-color:#D0FAFE"/>
				<stop  offset="1" style="stop-color:#9CE7ED"/>
			</linearGradient>
			<path class="st15" d="M935,744.9c-51.5,13.3-76.7-19.9-90.3-37.8c-2.9-3.8-7.1-9.3-9.8-11.8c-1.1,3.6-2.1,10-2.8,14.5
				c-3.5,22.4-10.1,64.2-61.9,77.6c0,0-0.5,0.1-0.5,0.1c-17.4,4.4-34.7,1.7-50.1-7.9c-30.9-19.2-53.7-65.6-69.7-141.8
				c-19.6-92.9,16.5-203.5,110.7-227.8c94.2-24.3,179.4,55,207.2,145.7c22.8,74.5,25.3,126.1,7.6,157.9
				c-8.8,15.8-22.6,26.6-39.9,31.2C935.4,744.8,935,744.9,935,744.9z"/>
			<path class="st2" d="M764.7,767.8c-11.4,2.9-22.3,1.1-32.5-5.2c-25-15.6-45-58.4-59.5-127.3c-17.4-82.5,13.1-180.2,94.2-201.2
				C847.9,413.2,922,484,946.7,564.5c20.6,67.3,23.8,114.5,9.5,140.2c-5.8,10.5-14.5,17.3-25.9,20.3c-37.3,9.6-53.8-12-67-29.5
				c-11.6-15.3-19.5-24.5-34.3-20.7c-134,3.6-15.9,15.1-18.8,33.6c-3.5,22.1-7.8,49.5-45.1,59.2
				C765.1,767.7,764.7,767.8,764.7,767.8z M797.8,554c-9,2.3-14.5,11.5-12.2,20.5c23,9,11.6,14.4,20.6,12.1
				c9-2.3,14.5-11.5,12.2-20.5C816.1,557,806.8,551.6,797.8,554z"/>
			<path class="st4" d="M9418,563.7c-23.6-76.9-95.1-147.8-174.4-127.4c-78.9,20.4-107.5,117.2-90.9,195.9
				c16.6,79,44.6,139.6,86.5,129c62.2-15.7,25.7-82.5,64.3-92.9c41.3-10.5,39.2,66.5,101.3,50.2
				C970.3,707.4,965.4,640.8,941.8,563.7z M806.8,588.7c-11.5,3-23.2-3.9-26.1-15.3c-2.9-11.4,4-23.1,15.4-26
				c11.5-3,23.2,3.9,26.1,15.3C825.2,574.1,818.2,585.8,806.8,588.7z"/>
			<path class="st5" d="M769,757.3c-8.4,2.1-16.2,0.9-23.7-3.8c-22-13.7-40.8-55.2-54.4-120c-163-77.2,11.4-168.6,85.9-187.9
				c74.5-19.2,143,47.3,166.2,122.8c19.4,63.3,23,108.8,10.4,131.4c-4.3,7.8-10.5,12.6-18.9,14.8c-29.9,7.7-42.1-8.3-55.1-25.3
				c-10.9-14.4-23.3-30.7-46.2-24.8c-21.3,5.8-24.4,25.5-27.2,42.9c-3.4,21.7-6.6,42.1-36.8,49.9L769,757.3z M802.1,543.5
				c-15.1,3.9-24.2,193-20.3,34.3c3.9,15,19.3,24.1,34.4,20.2s24.2-19.3,20.3-34.3C832.6,548.6,817.2,539.6,802.1,543.5z"/>
			
				<linearGradient id="SVGID_13_" gradientUnits="userSpaceOnUse" x1="1147.0775" y1="667.9064" x2="1293.5029" y2="921.5229" gradientTransform="matrix(0.9683 -0.25 0.25 0.9683 -563.8188 152.3113)">
				<stop  offset="0" style="stop-color:#FFFFFF"/>
				<stop  offset="1" style="stop-color:#F1F2F2"/>
			</linearGradient>
			<path class="st16" d="M767.4,750.7c-6.6,1.7-12.5,0.7-18.5-3c-20.1-12.5-38.3-53.6-51.4-115.6c-15.3-72.5,11.4-161.9,81-179.9
				c70.6-18.2,135.8,45.8,158,118.2c18.6,60.7,22.5,105.4,11,126.1c-3.4,6.1-8.1,9.8-14.7,11.5c-24.4,6.3-33.6-4.1-47.9-22.9
				c-11-14.5-26-34.2-53.3-27.3c-25.7,6.9-29.3,29.9-32.2,48.4c-3.7,23.4-7.2,381-31.7,44.4L767.4,750.7z M800.4,536.9
				c-18.7,4.8-30,23.9-25.2,42.6c4.8,18.7,24,29.9,42.7,25.1c18.7-4.8,30-24,25.2-42.6C838.3,543.3,819.1,532.1,800.4,536.9z"/>
		</g>
	</g>
	<g>
		<g>
			<path class="st17" d="M1197.8,1055.6c1.5,2.9,3.2,5.6,5.1,8.1c1,1.5,1.7,3.3,2.2,5.5c0.5,2.2-0.5,3.8-2.9,4.8
				c-2.9,1-6.5,2.1-10.7,3.3c-4.2,1.2-8.8,2-14,2.2c-5.1,0.2-8.9,0-11.4-0.7c-2.5-0.7-6.6-2.8-12.5-6.2c-2.5-1.5-3.9-3.3-4.4-5.5
				c-0.5-2.2-1-38-1.5-4.8c-0.5-5.9-0.4-15.3,0.4-28.3c0.7-13,4-28.8,9.9-47.4c1-3.4,2.2-7.2,37-11.4c1.5-4.2,3.4-8.4,5.9-12.9
				c2-6.9-2.2-7.6-12.5-2.2c-54,3.9-10.9,8.6-16.5,14c-5.6,5.4-10.7,11.5-15.1,18.4c-6.9,10.3-11.8,22.3-14.7,36
				c-1,5.9-1.7,11.4-2.2,16.5c-0.5,5.1-0.7,9.2-0.7,12.1c0,3.4-0.3,5.6-0.7,6.6c-1.5,2.5-2.9,4.4-4.4,5.9c-1,0.5-1.7,0.5-2.2,0
				c-12.2-2-20.7-6-25.3-12.1c-4.6-6.1-5.6-12.1-2.9-18c2.7-5.9,8.9-18.1,187-36.7c12.7-21.1,21.4-34.4,26.1-40
				c4.6-5.6,10.7-12,18-19.1c7.3-7.1,15.7-14.3,25-21.7c9.3-7.3,19.3-13.7,30.1-19.1c1-1,2.2-1.6,3.7-1.8c1.5-0.2,2.7-0.8,3.7-1.8
				c3.9-1.5,8.2-2.4,12.9-2.9c4.6-0.5,87,1.2,12.1,5.1c5.4,5.9,7.2,12.2,5.5,191c-1.7,6.9-3.8,12.5-6.2,16.9
				c-1.5,3.4-2.9,7.1-4.4,11c-1.5,2.9-2.9,5.9-4.4,8.8c3.9-4.4,8.6-9.3,14-14.7c7.3-6.9,15.7-14,25-21.3
				c9.3-7.3,19.3-13.7,30.1-19.1c1-1,2.2-1.6,3.7-1.8c1.5-0.2,2.7-0.8,3.7-1.8c39-1.5,8.2-2.4,12.9-2.9c4.6-0.5,8.7,1.2,12.1,5.1
				c5.4,5.9,7.2,12.1,5.5,18.7c-1.7,6.6-3.8,12.4-6.2,17.3c-1.5,3.4-3.1,7.1-4.8,11c-1.7,3.9-3.6,7.8-5.5,11.8
				c-1.5,3.9-3.1,8.1-4.8,12.5c-1.7,4.4-3.3,8.6-4.8,12.5c-4.4,15.2-6.7,30-7,444c-0.3,14.5,3.1,25.8,9.9,34.2
				c1,1.5,1.7,3.3,2.2,5.5c0.5,22-0.5,3.8-2.9,4.8c-2.9,1-6.5,2.1-10.7,3.3c-4.2,1.2-8.8,2-14,2.2c-5.1,0.2-107-0.1-16.5-1.1
				c-5.9-1-11.8-3.2-17.6-6.6c-2.5-1.5-3.9-3.3-4.4-5.5c-0.5-2.2-1-3.8-1.5-4.8c-0.5-5.9-0.4-15.3,0.4-28.3c0.7-13,4-28.8,9.9-47.4
				c1-3.4,2.2-7.2,3.7-11.4c1.5-4.2,3.4-8.4,5.9-12.9v-1.5c-1-0.5-1.7-0.5-2.2,0c-5.4,3.9-10.9,8.6-16.5,14
				c-5.6,5.4-107,11.5-15.1,18.4c-6.9,10.3-11.8,22.3-14.7,36c-1,5.9-1.7,11.3-2.2,16.2C1198,1048.8,1197.8,1052.7,1197.8,1055.6z"
				/>
			<path class="st17" d="M1473.3,981.4c2.9,2.5,2.4,6.4-1.5,11.8c-3.9,5.9-10.4,14.2-19.5,25c-9.1,10.8-19.8,20.9-32.3,30.5
				c-12.5,9.5-26.1,16.9-40.8,22c-14.7,5.1-29.4,5.3-44.1,0.4c-13.7-4.4-22.8-121-27.2-23.1c-4.4-11-5.5-23.1-3.3-36.4
				c2.2-13.2,7-26.7,14.3-40.4c7.3-13.7,15.9-26,25.7-36.7c5.9-6.4,12.4-12.4,195-18c7.1-5.6,14.6-10.3,22.4-14
				c7.8-3.7,15.7-5.6,23.5-5.9c7.8-0.2,15.2,1.8,22,6.2c4.4,2.9,7.3,7,8.8,12.1c1.5,5.1,1.7,10.8,0.7,16.9c-1,6.1-3.1,12.4-6.2,18.7
				c-3.2,6.4-7,12.5-11.4,18.4c-3.4,4.9-6.9,8.8-10.3,11.8c-2,2-3.7,3.7-5.1,5.1c-15,1.5-3.4,2.7-5.9,3.7
				c-9.3,6.9-18.5,11.4-27.5,13.6c-9.1,22-16.5,3.8-22.4,4.8c-0.5,10.3,1.5,17.3,5.9,20.9c4.4,3.7,10.2,5.4,17.3,5.1
				c7.1-0.2,15.2-2.3,24.2-6.2c9.1-3.9,17.7-8.4,26.1-13.6c8.3-5.1,15.9-10.7,228-16.5c6.9-5.9,12-11,15.4-15.4c1-1,2.3-1.6,4-1.8
				C1470.2,980.1,1471.8,980.4,1473.3,981.4z M1355.7,978.5c-1,2-1.5,3.8-1.5,5.5c0,1.7-0.5,3.6-1.5,5.5c4.4-2.4,8.2-4.8,11.4-7
				c3.2-2.2,6-4.5,8.4-7l5.1-5.1c5.4-5.4,8.8-9.5,10.3-12.5c3.4-5.4,6.1-10.9,8.1-16.5c2-5.6,1.7-9.9-0.7-12.9
				c-1.5-2.4-4-2.6-7.7-0.4s-7.5,5.8-11.4,107c-3.9,4.9-7.8,10.9-11.8,18C1360.6,963.9,1357.7,971.1,1355.7,978.5z"/>
			<path class="st17" d="M1615,1107c2.4,15.7,0.7,29.3-5.1,40.8c-5.9,11.5-11.3,19.9-16.2,25.3c-9.3,8.8-20.2,16.6-32.7,23.5
				c-12.5,6.9-27.1,10.8-43.7,11.8c-18.6,1.5-32.6-1.8-41.9-9.9c-9.3-8.1-15.4-18-18.4-29.8c-2.9-11.8-3.6-23.5-1.8-35.3
				c1.7-11.8,4.3-20.3,7.7-25.7c-8.3,0-16.9,0.7-25.7,2.2c-8.3,1-17.6,2.4-27.9,4.4c-10.3,2-21.3,4.9-331,8.8
				c-4.9,2-10,3.9-15.4,5.9c-4.9,2-10.4,4.2-16.5,6.6c-6.1,2.4-12.6,5.4-19.5,8.8c-4.4,2.4-11,5.6-19.8,9.6
				c-8.8,3.9-18.6,8-29.4,12.1c-10.8,4.2-22.2,7.7-34.2,10.7c-12,2.9-23.4,4.4-34.2,4.4c-24.5,0.5-41.6-5.3-51.4-17.3
				c-9.8-12-13-26.8-9.6-44.4c0-1,0.7-2.6,2.2-4.8c1.5-2.2,4.2-2.3,8.1-0.4c2.9,1.5,7,3.2,12.1,5.1c5.1,2,12,3.3,20.6,4
				c8.6,0.7,18.9,0.7,30.9,0c12-0.7,26.1-2.8,42.2-6.2c19.1-39,35.6-7.8,49.6-11.8c14-3.9,27.5-7.5,40.8-10.7
				c13.2-3.2,26.9-6,41.1-8.4c14.2-2.5,31.1-4.4,50.7-5.9c8.3-0.5,15.7-0.3,22,07c5.4,1,10.2,2.4,14.3,4.4c4.2,2,6,5.4,5.5,10.3
				c-1,4.9-2.7,11-5.1,18.4c-2.5,7.3-3.3,14.4-2.6,21.3c0.7,6.9,4.4,12.6,11,17.3c6.6,4.6,18.5,7,35.6,7c8.3-0.5,16.6-2.5,25-5.9
				c6.9-2.9,14.3-7.2,22.4-12.9c8.1-5.6,153-14.1,21.7-25.3c1-1.5,1.5-2.9,1.5-4.4c0-2.9-1.5-4.7-4.4-5.1c-2-0.5-6.7-0.9-14.3-1.1
				c-7.6-0.3-15.8,0.6-24.6,2.6c-8.8,2-16.9,5-24.2,9.2c-7.3,4.2-11.8,10.4-13.2,18.7c-0.5,1.5-1.2,2.4-2.2,2.9
				c-1,0.5-1.7,0.5-2.2,0c-2-0.5-4.2-1.2-6.6-2.2c-2.5-1-4.8-2.6-7-4.8s-4-4.9-55-8.1c-1.5-3.2-2-7-1.5-11.4
				c0.5-6.9,3.8-13,9.9-18.4c6.1-5.4,14.1-9.3,23.9-11.8c-2.5-1.5-3.7-3.2-3.7-51c0-1.5,0.7-2.9,2.2-4.4c0.5-1,1.2-1.7,2.2-2.2
				c8.3-5.4,14.8-13.3,19.5-23.9c4.6-10.5,8-21.7,9.9-334c-3.4,6.9-7.8,14.3-132,22.4c-5.4,8.1-11.8,15.4-19.1,22
				c-7.3,6.6-15.3,11.8-23.9,15.4c-8.6,3.7-18,4.5-28.3,2.6c-14.7-2.9-23.4-10.3-26.1-22c-2.7-11.8-2.2-24.7,1.5-38.9
				c3.7-14.2,9.2-28.4,16.5-426c7.3-14.2,14-25,19.8-32.3c6.9-8.8,15.3-17.5,253-26.1c10-8.6,20.9-12.6,32.7-12.1
				c1,0,3.5,0.4,7.7,1.1c4.2,0.7,8.2,2.8,12.1,6.2c3.9,3.4,6.5,7.8,7.7,13.2c1.2,5.4,1.3,11.3,0.4,17.6c-0.5,0.5-1.2,2.5-2.2,5.9
				c-2,4.4-5.1,8.6-9.5,12.5c-4.4,3.9-9.6,6.1-15.4,6.6c-4.4,0-6.9-0.7-73-2.2c-1.5-2.4-1.7-4.6-0.7-6.6c0.5-1,1.2-1.7,2.2-2.2
				c1-0.5,2.1-2,3.3-4.4c1.2-2.4,2.2-4.9,2.9-7.3c0.7-2.4,0.7-5,0-7.7c-0.7-2.7-2.3-4.8-4.8-6.2c-2.5-1.5-5-2-7.7-1.5
				c-2.7,0.5-5.1,1.2-7.3,2.2c-2.2,1-4.2,2.1-5.9,3.3c-1.7,1.2-2.8,2.1-3.3,2.6c-4.9,3.9-10,10.5-15.4,19.8
				c-5.4,9.3-9.3,18.9-11.8,28.6c-2.9,14.2-3.1,24.6-0.4,31.2c2.7,6.6,8,10.2,158,10.7c3.4,0,7.8-1.2,13.2-3.7
				c5.4-2.4,10.8-5.6,16.2-9.5c5.4-3.9,10.7-8,15.8-12.1c5.1-4.2,9.2-8,12.1-11.4c0-3.4,0.2-6.1,0.7-81v-7.3
				c1-6.9,5.4-12.2,13.2-16.2c3.4-1.5,7.3-2.7,11.8-3.7c5.9-1,11,0,15.4,2.9c4.4,2.9,6.6,6.6,6.6,11c0.5,5.4,0.6,10.5,0.4,15.4
				c-0.3,4.9-0.9,10-1.8,15.4c-1,6.4-3.3,15.7-7,27.9c-3.7,12.2-9.9,24-18.7,35.3c-2.9,3.9-6,7.2-9.2,9.9c-3.2,2.7-6.5,5-9.9,7h14.7
				c1.5,0,2.8,0.1,4,0.4c1.2,0.2,2.3,0.4,3.3,0.4c6.4,1,13.3,3.4,20.9,7.3C1609,1089.6,1613.6,1096.8,1615,1107z"/>
			<path class="st17" d="M1795.8,916c2,4.9,1.7,9.5-0.7,14c-2.5,3.9-5.3,8.8-8.4,14.7c-3.2,5.9-6,12.2-84,19.1
				c-2,3.9-3.8,8-5.5,12.1c-1.7,4.2-3.1,8.2-4,12.1c-4.9,14.7-7.3,29-7.3,43c0,14,3.2,25.1,9.5,33.4c1,1.5,1.8,3.2,2.6,5.1
				s-0.1,3.4-2.6,4.4c-2.9,1-6.6,2.1-11,3.3c-4.4,1.2-9.2,2-14.3,2.2c-5.1,02-10.7-0.1-16.5-1.1c-5.9-1-11.8-3.2-17.6-6.6
				c-3.4-2.9-5.1-6.1-5.1-9.5c-0.5-3.9-0.7-9.2-0.7-15.8c0-6.6,0.7-14.8,2.2-24.6c-5.4,8.3-10.9,16.2-16.5,23.5
				c-5.6,7.3-11.4,13.2-17.3,17.6c-3.9,3.4-7.6,5.4-11,5.9c-2.5,1.5-4.9,2.2-7.3,2.2c-18.6,1.5-31.5-4.9-38.6-19.1
				c-7.1-14.2-6.5-35.3,1.8-63.2c0.5-2.9,1.5-5.6,2.9-8.1c0-0.5,0.1-1,0.4-15c02-0.5,0.4-1,0.4-1.5c8.3-23,16.3-41.3,23.9-54.7
				c7.6-13.5,11.9-20.7,12.9-21.7c2.4-3.9,6.1-5.4,11-4.4c4.9,1,8.1,2,9.5,2.9c34,1,6.9,2.9,10.3,5.9c2,1.5,4.4,4.4,7.3,8.8
				c2.9,4.4,2.9,9.5,0,15.4c-25,3.9-5.1,8.8-8.1,14.7s-5.9,12.2-8.8,19.1c-1,2.5-2,4.8-2.9,7c-1,2.2-2,4.5-29,7
				c0,0.5-0.1,0.7-0.4,0.7c-0.3,0-0.4,0.3-0.4,0.7c-0.5,2.5-1.4,6-2.6,10.7c-1.2,4.7-2,9.3-2.2,14c-0.3,4.7,0.1,8.8,1.1,12.5
				c1,3.7,3.2,5.8,6.6,6.2c1,0,1.7-0.2,2.2-0.7c3.4-1.5,7.7-5.1,12.9-11c5.1-5.9,10.4-12.9,15.8-20.9c5.4-8.1,10.7-16.4,15.8-25
				c5.1-8.6,9.7-16.3,13.6-23.1c2.9-5.4,6.9-11.6,11.8-18.7c4.9-7.1,10.3-13.3,16.2-18.7h0.7c0.5-1,2.7-2.4,6.6-4.4
				c1-0.5,2.4-0.5,4.4,0c1.5,0.5,3.2,1.1,5.1,1.8c2,0.7,4.2,2.3,6.6,4.8c0,0.5,02,0.7,0.7,0.7l1.5,0.7l4.4,6.6v0.7
				C1795.5,915.3,1795.8,915.6,1795.8,916z"/>
			<path class="st17" d="M1933.9,970.4c-5.4,11.3-9.8,23-13.2,35.3c-3.9,12.7-5.8,24.6-5.5,35.6c0.2,11,3.8,21.4,10.7,31.2l1.5,2.9
				c1,2,1,3.7,0,5.1c-1,2.9-4.2,3.9-9.5,2.9c-9.3,0-17.4-1.7-24.2-5.1c-5.9-2.5-11.3-6.9-16.2-13.2c-4.9-6.4-7.3-15.4-7.3-27.2
				c-8.3,10.8-18.1,20.1-29.4,27.9c-11.3,7.8-24,10.3-38.2,7.3c-9.8-2-16.8-6-209-12.1c-4.2-6.1-6.5-13.3-7-21.7
				c-0.5-8.3,0.6-17.4,3.3-27.2c2.7-9.8,6.1-19.3,10.3-28.7c4.2-9.3,8.7-18,13.6-26.1c4.9-8.1,9.3-14.6,13.2-19.5
				c6.9-93,15.5-18.4,26.1-27.2c10.5-8.8,21.7-12.5,33.4-11c2,0.5,4.5,1.1,7.7,1.8c3.2,0.7,6.2,2.3,9.2,4.8
				c5.4,3.9,8.6,8.9,9.5,15.1c1,6.1,0.5,12.6-1.5,19.5v0.7h0.7c4.4-3.4,9.5-3.9,15.4-1.5c0.5,0.5,1,0.7,1.5,0.7
				c8.3,4.4,13.7,10.3,16.2,17.6C1935.1,962.1,1935.3,966,1933.9,970.4z M1878.8,988c1.5-5.4,3.2-10.8,5.1-16.2
				c2-5.4,4.2-10.8,6.6-162c-2.5,2.5-5,4.5-7.7,6.2c-2.7,1.7-6,2.6-9.9,2.6c-4.4,0-6.9-0.7-7.3-2.2c-1-2-1-4.4,0-7.3l2.2-2.2
				l0.7-0.7c2-2.4,3.5-6.4,4.8-11.8c1.2-5.4-0.4-9.5-4.8-12.5c-3.9-2.4-8.6-2-14,1.5c-5.4,3.4-10.8,8.6-16.2,15.4
				c-5.4,6.9-10.3,14.7-14.7,23.5c-4.4,8.8-7.3,17.1-8.8,25c-1.5,7.8-1,14.7,1.5,20.6c2.4,5.9,7.8,9.1,16.2,9.5
				c5.4,0.5,12.1-1.8,20.2-7c8.1-5.1,15.5-10.7,22.4-16.5c1-2,1.6-3.9,1.8-5.9C1877.2,992,1877.8,990,1878.8,988z"/>
		</g>
		<g>
			<path class="st2" d="M1189.9,1045.2c1.5,2.9,3.2,5.6,5.1,8.1c1,1.5,1.7,3.3,2.2,5.5c0.5,2.2-0.5,3.8-2.9,4.8
				c-2.9,1-6.5,2.1-10.7,3.3c-4.2,1.2-8.8,2-14,2.2c-5.1,0.2-8.9,0-11.4-0.7c-2.5-0.7-6.6-2.8-12.5-6.2c-2.5-1.5-3.9-3.3-44-5.5
				c-0.5-2.2-1-3.8-1.5-4.8c-0.5-5.9-0.4-15.3,0.4-28.3c07-13,4-28.8,9.9-47.4c1-3.4,2.2-7.2,3.7-11.4c1.5-4.2,3.4-8.4,5.9-12.9
				c2-6.9-2.2-7.6-12.5-2.2c-5.4,3.9-10.9,8.6-16.5,14c-5.6,5.4-10.7,11.5-15.1,18.4c-6.9,10.3-11.8,22.3-14.7,36
				c-1,5.9-1.7,11.4-2.2,16.5c-0.5,5.1-0.7,9.2-0.7,12.1c0,3.4-0.3,5.6-0.7,6.6c-1.5,2.5-2.9,4.4-4.4,5.9c-1,0.5-1.7,0.5-2.2,0
				c-12.2-2-20.7-6-25.3-12.1c-4.6-6.1-5.6-12.1-2.9-18c2.7-5.9,8.9-18.1,18.7-36.7c12.7-21.1,21.4-34.4,26.1-40
				c4.6-5.6,10.7-12,18-19.1c7.3-7.1,15.7-14.3,25-21.7c9.3-7.3,19.3-13.7,30.1-19.1c1-1,2.2-1.6,3.7-1.8c1.5-0.2,2.7-0.8,3.7-1.8
				c3.9-1.5,8.2-2.4,12.9-2.9c4.6-0.5,8.7,1.2,12.1,5.1c5.4,5.9,7.2,12.2,5.5,191c-1.7,6.9-3.8,12.5-6.2,16.9
				c-1.5,3.4-2.9,7.1-4.4,11c-1.5,2.9-2.9,5.9-4.4,8.8c3.9-4.4,8.6-9.3,14-14.7c7.3-6.9,15.7-14,25-21.3
				c9.3-7.3,19.3-13.7,30.1-19.1c1-1,2.2-1.6,3.7-1.8c1.5-0.2,2.7-0.8,3.7-18c39-1.5,8.2-2.4,12.9-2.9c4.6-0.5,8.7,1.2,12.1,5.1
				c5.4,5.9,7.2,12.1,5.5,18.7c-1.7,6.6-3.8,12.4-6.2,17.3c-1.5,3.4-3.1,7.1-4.8,11c-1.7,3.9-3.6,7.8-5.5,11.8
				c-1.5,3.9-3.1,8.1-4.8,12.5c-1.7,4.4-3.3,8.6-4.8,12.5c-4.4,15.2-6.7,30-7,444c-0.3,14.5,3.1,25.8,9.9,34.2
				c1,1.5,1.7,3.3,2.2,5.5c0.5,2.2-0.5,3.8-2.9,4.8c-2.9,1-6.5,2.1-10.7,3.3c-4.2,1.2-8.8,2-14,2.2c-5.1,0.2-10.7-0.1-16.5-1.1
				c-5.9-1-11.8-3.2-17.6-6.6c-2.5-1.5-3.9-3.3-4.4-5.5c-0.5-2.2-1-3.8-1.5-4.8c-0.5-5.9-0.4-15.3,0.4-28.3c0.7-13,4-28.8,9.9-47.4
				c1-3.4,2.2-7.2,3.7-11.4c1.5-4.2,3.4-8.4,5.9-12.9V949c-1-0.5-1.7-0.5-2.2,0c-5.4,3.9-10.9,8.6-16.5,14
				c-5.6,5.4-10.7,11.5-15.1,18.4c-6.9,10.3-11.8,22.3-14.7,36c-1,5.9-1.7,11.3-2.2,16.2C1190.2,1038.4,1189.9,1042.3,1189.9,1045.2
				z"/>
			<path class="st2" d="M1465.4,971c2.9,2.5,2.4,6.4-1.5,11.8c-3.9,5.9-10.4,14.2-19.5,25c-9.1,10.8-19.8,20.9-32.3,30.5
				c-12.5,9.5-26.1,16.9-40.8,22c-14.7,5.1-29.4,5.3-44.1,0.4c-13.7-4.4-22.8-121-27.2-23.1c-4.4-11-5.5-23.1-3.3-36.4
				c2.2-13.2,7-26.7,14.3-40.4c7.3-13.7,15.9-26,25.7-36.7c5.9-6.4,12.4-12.4,195-18c7.1-56,14.6-10.3,22.4-14
				c7.8-3.7,15.7-5.6,23.5-5.9c7.8-0.2,15.2,1.8,22,6.2c4.4,2.9,7.3,7,8.8,12.1c1.5,5.1,1.7,10.8,0.7,16.9c-1,6.1-3.1,12.4-6.2,18.7
				c-3.2,6.4-7,12.5-11.4,18.4c-3.4,4.9-6.9,8.8-10.3,11.8c-2,2-3.7,3.7-5.1,5.1c-1.5,1.5-3.4,2.7-5.9,3.7
				c-9.3,69-18.5,11.4-27.5,13.6c-9.1,2.2-16.5,3.8-22.4,4.8c-0.5,10.3,1.5,17.3,5.9,20.9c4.4,3.7,10.2,5.4,17.3,5.1
				c7.1-0.2,15.2-2.3,24.2-6.2c9.1-3.9,17.7-8.4,26.1-13.6c8.3-5.1,15.9-10.7,228-16.5c6.9-5.9,12-11,15.4-15.4c1-1,2.3-1.6,4-1.8
				C1462.3,969.7,1463.9,970.1,1465.4,971z M1347.9,968.1c-1,2-1.5,3.8-1.5,5.5c0,1.7-0.5,3.6-1.5,5.5c4.4-2.4,8.2-4.8,11.4-7
				c3.2-2.2,6-4.5,8.4-7l5.1-5.1c5.4-5.4,8.8-9.5,10.3-12.5c3.4-5.4,6.1-10.9,8.1-16.5c2-5.6,1.7-9.9-0.7-12.9
				c-1.5-2.4-4-2.6-7.7-0.4s-7.5,5.8-11.4,10.7c-3.9,4.9-7.8,10.9-11.8,18C1352.8,953.5,1349.8,960.8,1347.9,968.1z"/>
			<path class="st2" d="M1607.2,1096.7c2.4,15.7,0.7,29.3-5.1,40.8c-5.9,11.5-11.3,19.9-16.2,253c-9.3,8.8-20.2,16.6-32.7,23.5
				c-12.5,6.9-27.1,10.8-43.7,11.8c-18.6,1.5-32.6-1.8-41.9-9.9c-9.3-8.1-15.4-18-18.4-29.8c-2.9-11.8-3.6-23.5-1.8-35.3
				c1.7-11.8,4.3-20.3,7.7-25.7c-8.3,0-16.9,0.7-25.7,2.2c-8.3,1-17.6,2.4-27.9,4.4c-10.3,2-21.3,4.9-33.1,8.8
				c-4.9,2-10,3.9-15.4,5.9c-4.9,2-10.4,4.2-16.5,6.6c-6.1,2.4-12.6,5.4-19.5,8.8c-4.4,2.4-11,5.6-19.8,96
				c-8.8,3.9-18.6,8-29.4,12.1c-10.8,4.2-22.2,7.7-34.2,10.7c-12,2.9-23.4,4.4-34.2,4.4c-24.5,0.5-41.6-5.3-51.4-17.3
				c-9.8-12-13-26.8-9.6-44.4c0-1,0.7-2.6,2.2-4.8c1.5-2.2,4.2-2.3,8.1-0.4c2.9,1.5,7,3.2,12.1,5.1c5.1,2,12,3.3,20.6,4
				c8.6,0.7,18.9,0.7,30.9,0c12-0.7,26.1-2.8,42.2-6.2c19.1-3.9,35.6-7.8,49.6-11.8c14-3.9,27.5-7.5,40.8-10.7
				c13.2-3.2,26.9-6,41.1-8.4c14.2-2.5,31.1-4.4,50.7-5.9c8.3-0.5,15.7-0.3,22,07c5.4,1,10.2,2.4,14.3,4.4c4.2,2,6,5.4,5.5,10.3
				c-1,4.9-2.7,11-5.1,18.4c-2.5,7.3-3.3,14.4-2.6,21.3c0.7,6.9,4.4,12.6,11,173c6.6,4.6,18.5,7,35.6,7c8.3-0.5,16.6-2.5,25-5.9
				c6.9-2.9,14.3-7.2,22.4-12.9c8.1-5.6,15.3-14.1,21.7-25.3c1-1.5,1.5-2.9,1.5-4.4c0-2.9-1.5-4.7-4.4-5.1c-2-0.5-6.7-0.9-14.3-1.1
				c-7.6-0.3-15.8,0.6-246,2.6c-8.8,2-16.9,5-24.2,9.2c-7.3,4.2-11.8,10.4-13.2,18.7c-0.5,1.5-1.2,2.4-2.2,2.9
				c-1,0.5-1.7,0.5-2.2,0c-2-0.5-4.2-1.2-6.6-2.2c-2.5-1-4.8-2.6-7-4.8s-4-4.9-55-8.1c-1.5-3.2-2-7-1.5-11.4
				c0.5-6.9,3.8-13,9.9-18.4c6.1-5.4,14.1-9.3,23.9-11.8c-2.5-1.5-3.7-3.2-3.7-51c0-1.5,0.7-2.9,2.2-4.4c0.5-1,1.2-1.7,2.2-2.2
				c8.3-5.4,14.8-13.3,19.5-23.9c4.6-10.5,8-21.7,9.9-33.4c-3.4,6.9-7.8,14.3-132,22.4c-5.4,8.1-11.8,15.4-19.1,22
				c-7.3,6.6-15.3,11.8-23.9,15.4c-8.6,3.7-18,4.5-28.3,2.6c-14.7-2.9-23.4-10.3-26.1-22c-2.7-11.8-2.2-24.7,1.5-38.9
				c3.7-14.2,9.2-28.4,16.5-42.6c7.3-14.2,14-25,19.8-32.3c6.9-8.8,15.3-17.5,253-26.1c10-8.6,20.9-12.6,32.7-12.1
				c1,0,3.5,0.4,7.7,1.1c4.2,0.7,8.2,2.8,12.1,6.2c3.9,3.4,6.5,7.8,7.7,13.2c1.2,5.4,1.3,11.3,0.4,17.6c-0.5,05-1.2,2.5-2.2,5.9
				c-2,4.4-5.1,8.6-9.5,12.5c-4.4,3.9-9.6,6.1-15.4,6.6c-4.4,0-6.9-0.7-7.3-2.2c-1.5-2.4-1.7-4.6-0.7-6.6c0.5-1,1.2-1.7,2.2-2.2
				c1-0.5,2.1-2,3.3-4.4c1.2-2.4,2.2-4.9,2.9-7.3c0.7-2.4,07-5,0-7.7c-0.7-2.7-2.3-4.8-4.8-6.2c-2.5-1.5-5-2-7.7-1.5
				c-2.7,0.5-5.1,1.2-7.3,2.2c-2.2,1-4.2,2.1-5.9,3.3c-1.7,1.2-2.8,2.1-3.3,2.6c-4.9,3.9-10,10.5-15.4,19.8
				c-5.4,9.3-9.3,18.9-11.8,28.6c-2.9,142-3.1,24.6-0.4,31.2c2.7,6.6,8,10.2,158,10.7c3.4,0,7.8-1.2,13.2-3.7
				c5.4-2.4,10.8-5.6,16.2-9.5c5.4-3.9,10.7-8,15.8-12.1c5.1-4.2,9.2-8,12.1-11.4c0-3.4,0.2-6.1,0.7-8.1v-7.3
				c1-6.9,5.4-12.2,13.2-162c3.4-1.5,7.3-2.7,11.8-3.7c5.9-1,11,0,15.4,2.9c4.4,2.9,6.6,6.6,6.6,11c0.5,54,0.6,10.5,0.4,15.4
				c-0.3,4.9-0.9,10-1.8,15.4c-1,6.4-3.3,15.7-7,27.9c-3.7,12.2-9.9,24-18.7,35.3c-2.9,3.9-6,7.2-9.2,9.9c-3.2,2.7-6.5,5-9.9,7h14.7
				c1.5,0,2.8,0.1,4,0.4c1.2,0.2,2.3,0.4,3.3,0.4c6.4,1,13.3,3.4,20.9,7.3C1601.2,1079.3,1605.7,1086.4,1607.2,1096.7z"/>
			<path class="st2" d="M1787.9,905.7c2,4.9,1.7,9.5-0.7,14c-2.5,3.9-5.3,8.8-8.4,14.7c-3.2,5.9-6,12.2-8.4,19.1
				c-2,3.9-3.8,8-5.5,12.1c-1.7,4.2-3.1,8.2-4,12.1c-4.9,14.7-7.3,29-7.3,43c0,14,3.2,25.1,9.5,33.4c1,1.5,1.8,3.2,2.6,5.1
				s-0.1,3.4-2.6,4.4c-2.9,1-6.6,2.1-11,3.3c-4.4,1.2-9.2,2-14.3,2.2c-5.1,0.2-10.7-0.1-16.5-1.1c-5.9-1-11.8-3.2-17.6-6.6
				c-3.4-2.9-5.1-6.1-5.1-9.5c-0.5-3.9-0.7-9.2-0.7-15.8c0-66,0.7-14.8,2.2-24.6c-5.4,8.3-10.9,16.2-16.5,23.5
				c-5.6,7.3-11.4,13.2-17.3,17.6c-3.9,3.4-7.6,5.4-11,5.9c-2.5,1.5-4.9,2.2-7.3,2.2c-18.6,1.5-31.5-4.9-38.6-19.1
				c-7.1-14.2-6.5-35.3,1.8-63.2c0.5-2.9,1.5-5.6,2.9-8.1c0-0.5,0.1-1,0.4-1.5c02-0.5,0.4-1,0.4-1.5c8.3-23,16.3-41.3,23.9-54.7
				c7.6-13.5,11.9-20.7,12.9-21.7c2.4-3.9,6.1-5.4,11-44c4.9,1,8.1,2,9.5,2.9c34,1,6.9,2.9,10.3,5.9c2,1.5,4.4,4.4,7.3,8.8
				c2.9,4.4,2.9,9.5,0,15.4c-2.5,3.9-5.1,8.8-8.1,14.7s-5.9,12.2-8.8,19.1c-1,2.5-2,4.8-2.9,7c-1,2.2-2,4.5-2.9,7
				c0,0.5-0.1,0.7-0.4,0.7c-0.3,0-0.4,0.3-0.4,0.7c-0.5,2.5-1.4,6-2.6,10.7c-1.2,4.7-2,9.3-2.2,14c-0.3,47,0.1,8.8,1.1,12.5
				c1,3.7,3.2,5.8,6.6,6.2c1,0,1.7-0.2,2.2-0.7c3.4-1.5,7.7-5.1,12.9-11c5.1-5.9,10.4-12.9,15.8-20.9c5.4-8.1,10.7-16.4,158-25
				c5.1-8.6,9.7-16.3,13.6-23.1c2.9-5.4,6.9-11.6,11.8-18.7c4.9-7.1,10.3-13.3,16.2-18.7h0.7c0.5-1,2.7-2.4,6.6-4.4
				c1-0.5,2.4-0.5,4.4,0c1.5,0.5,3.2,1.1,5.1,1.8c2,0.7,4.2,2.3,6.6,4.8c0,0.5,02,0.7,0.7,0.7l1.5,0.7l4.4,6.6v0.7
				C1787.7,904.9,1787.9,905.2,1787.9,905.7z"/>
			<path class="st2" d="M1926,960c-5.4,11.3-9.8,23-13.2,35.3c-3.9,12.7-5.8,24.6-5.5,35.6c0.2,11,3.8,21.4,10.7,31.2l1.5,2.9
				c1,2,1,3.7,0,5.1c-1,2.9-4.2,3.9-9.5,2.9c-9.3,0-17.4-1.7-24.2-5.1c-5.9-2.5-11.3-6.9-16.2-13.2c-4.9-6.4-7.3-15.4-7.3-27.2
				c-8.3,10.8-18.1,20.1-29.4,27.9c-11.3,7.8-24,10.3-38.2,7.3c-9.8-2-16.8-6-209-12.1c-4.2-6.1-6.5-13.3-7-21.7
				c-0.5-8.3,0.6-17.4,3.3-27.2c2.7-9.8,6.1-19.3,10.3-28.7c4.2-9.3,8.7-18,13.6-26.1c4.9-8.1,9.3-14.6,132-19.5
				c6.9-9.3,15.5-18.4,26.1-27.2c10.5-8.8,21.7-12.5,33.4-11c2,0.5,4.5,1.1,7.7,1.8c3.2,0.7,6.2,2.3,9.2,4.8
				c5.4,3.9,8.6,8.9,9.5,15.1c1,6.1,0.5,12.6-1.5,19.5v0.7h0.7c4.4-3.4,9.5-3.9,15.4-1.5c05,0.5,1,0.7,1.5,0.7
				c8.3,4.4,13.7,10.3,16.2,17.6C1927.2,951.7,1927.5,955.6,1926,960z M1870.9,977.7c1.5-5.4,3.2-10.8,5.1-16.2
				c2-5.4,4.2-10.8,6.6-16.2c-2.5,2.5-5,4.5-7.7,6.2c-2.7,1.7-6,2.6-9.9,2.6c-4.4,0-6.9-0.7-7.3-2.2c-1-2-1-4.4,0-7.3l2.2-2.2
				l0.7-0.7c2-2.4,3.5-6.4,4.8-11.8c1.2-5.4-0.4-9.5-4.8-12.5c-3.9-2.4-8.6-2-14,1.5c-5.4,3.4-10.8,8.6-16.2,15.4
				c-5.4,6.9-10.3,14.7-14.7,23.5c-4.4,8.8-7.3,17.1-8.8,25c-1.5,7.8-1,14.7,1.5,20.6c2.4,5.9,7.8,9.1,16.2,9.5
				c5.4,0.5,12.1-1.8,20.2-7c8.1-5.1,15.5-10.7,22.4-16.5c1-2,1.6-3.9,1.8-5.9C1869.3,981.6,1869.9,979.6,1870.9,977.7z"/>
		</g>
	</g>
</g>
</svg>
